<svg width="144" height="32" viewBox="0 0 144 32" fill="none" xmlns="http://www.w3.org/2000/svg">
<g clip-path="url(#clip0_7531_72679)">
<rect width="32" height="32" rx="12" fill="#0A0D12"/>
<rect width="32" height="32" fill="url(#paint0_linear_7531_72679)"/>
<path d="M5 16.5001L7.68377 15.6055C7.88904 15.5371 8.11096 15.5371 8.31623 15.6055L11 16.5001" stroke="white" stroke-width="2" stroke-linecap="round"/>
<path d="M15 16H29" stroke="#67E3F9" stroke-width="2"/>
<path d="M8.35254 24.3547L9.61768 21.8244C9.71445 21.6309 9.87137 21.474 10.0649 21.3772L12.5952 20.1121" stroke="white" stroke-width="2" stroke-linecap="round"/>
<path d="M18.9592 12.3339L21.4895 11.0688C21.683 10.972 21.84 10.8151 21.9367 10.6216L23.2019 8.09131" stroke="white" stroke-width="2" stroke-linecap="round"/>
<path d="M16.5001 27.0015L15.6055 24.3177C15.5371 24.1124 15.5371 23.8905 15.6055 23.6852L16.5001 21.0015" stroke="white" stroke-width="2" stroke-linecap="round"/>
<path d="M15.5 11.0015L16.3946 8.31769C16.463 8.11243 16.463 7.8905 16.3946 7.68524L15.5 5.00146" stroke="white" stroke-width="2" stroke-linecap="round"/>
<path d="M24.3545 23.6474L21.8242 22.3823C21.6306 22.2855 21.4737 22.1286 21.377 21.9351L20.1118 19.4048" stroke="white" stroke-width="2" stroke-linecap="round"/>
<path d="M12.3337 13.0407L11.0686 10.5105C10.9718 10.3169 10.8149 10.16 10.6213 10.0632L8.09106 8.7981" stroke="white" stroke-width="2" stroke-linecap="round"/>
</g>
<rect x="1" y="1" width="30" height="30" rx="11" stroke="url(#paint1_linear_7531_72679)" stroke-width="2"/>
<path d="M46.732 22.256C45.736 22.256 44.824 22.082 43.996 21.734C43.18 21.374 42.472 20.888 41.872 20.276C41.284 19.664 40.822 18.95 40.486 18.134C40.162 17.318 40 16.442 40 15.506C40 14.546 40.168 13.658 40.504 12.842C40.852 12.014 41.326 11.3 41.926 10.7C42.538 10.088 43.252 9.614 44.068 9.278C44.884 8.93 45.772 8.756 46.732 8.756C47.356 8.756 47.956 8.834 48.532 8.99C49.12 9.146 49.66 9.368 50.152 9.656C50.656 9.944 51.112 10.292 51.52 10.7C51.928 11.096 52.276 11.54 52.564 12.032L50.332 13.436C49.984 12.752 49.504 12.218 48.892 11.834C48.292 11.438 47.578 11.24 46.75 11.24C46.15 11.24 45.592 11.354 45.076 11.582C44.572 11.798 44.134 12.098 43.762 12.482C43.39 12.866 43.096 13.322 42.88 13.85C42.676 14.366 42.574 14.918 42.574 15.506C42.574 16.082 42.676 16.628 42.88 17.144C43.084 17.66 43.372 18.11 43.744 18.494C44.116 18.878 44.554 19.184 45.058 19.412C45.562 19.628 46.114 19.736 46.714 19.736C47.614 19.736 48.376 19.514 49 19.07C49.636 18.614 50.116 18.026 50.44 17.306L52.762 18.548C52.486 19.1 52.144 19.604 51.736 20.06C51.328 20.516 50.866 20.906 50.35 21.23C49.846 21.554 49.288 21.806 48.676 21.986C48.064 22.166 47.416 22.256 46.732 22.256Z" fill="#0A0D12"/>
<path d="M58.9602 22.274C58.2282 22.274 57.5502 22.142 56.9262 21.878C56.3022 21.614 55.7562 21.254 55.2882 20.798C54.8322 20.33 54.4722 19.79 54.2082 19.178C53.9562 18.566 53.8302 17.912 53.8302 17.216C53.8302 16.52 53.9562 15.866 54.2082 15.254C54.4722 14.63 54.8322 14.09 55.2882 13.634C55.7562 13.178 56.3022 12.818 56.9262 12.554C57.5502 12.29 58.2282 12.158 58.9602 12.158C59.6802 12.158 60.3522 12.29 60.9762 12.554C61.6122 12.818 62.1582 13.178 62.6142 13.634C63.0822 14.09 63.4482 14.63 63.7122 15.254C63.9762 15.866 64.1082 16.52 64.1082 17.216C64.1082 17.912 63.9762 18.566 63.7122 19.178C63.4482 19.79 63.0882 20.33 62.6322 20.798C62.1762 21.254 61.6302 21.614 60.9942 21.878C60.3702 22.142 59.6922 22.274 58.9602 22.274ZM58.9782 19.916C59.3502 19.916 59.6982 19.844 60.0222 19.7C60.3462 19.556 60.6282 19.364 60.8682 19.124C61.1082 18.884 61.2942 18.602 61.4262 18.278C61.5702 17.942 61.6422 17.582 61.6422 17.198C61.6422 16.826 61.5702 16.472 61.4262 16.136C61.2942 15.8 61.1082 15.512 60.8682 15.272C60.6282 15.032 60.3462 14.84 60.0222 14.696C59.6982 14.552 59.3502 14.48 58.9782 14.48C58.6062 14.48 58.2582 14.552 57.9342 14.696C57.6102 14.84 57.3282 15.032 57.0882 15.272C56.8482 15.512 56.6562 15.8 56.5122 16.136C56.3802 16.472 56.3142 16.826 56.3142 17.198C56.3142 17.582 56.3802 17.942 56.5122 18.278C56.6562 18.602 56.8482 18.884 57.0882 19.124C57.3282 19.364 57.6102 19.556 57.9342 19.7C58.2582 19.844 58.6062 19.916 58.9782 19.916Z" fill="#0A0D12"/>
<path d="M65.7378 12.356H68.2218V13.58C68.5338 13.136 68.9297 12.788 69.4097 12.536C69.9018 12.284 70.4538 12.158 71.0658 12.158C72.2178 12.158 73.1297 12.518 73.8018 13.238C74.4857 13.946 74.8278 14.936 74.8278 16.208V22.076H72.2897V16.586C72.2897 15.89 72.1218 15.344 71.7858 14.948C71.4618 14.54 70.9698 14.336 70.3098 14.336C69.7218 14.336 69.2298 14.546 68.8338 14.966C68.4378 15.374 68.2398 15.956 68.2398 16.712V22.076H65.7378V12.356Z" fill="#0A0D12"/>
<path d="M75.8853 12.356H77.6852V10.25L80.1333 8.81V12.356H82.6893V14.552H80.1333V18.548C80.1333 19.064 80.2292 19.424 80.4212 19.628C80.6252 19.832 80.8833 19.934 81.1953 19.934C81.5193 19.934 81.8193 19.814 82.0953 19.574L83.2292 21.518C82.9172 21.758 82.5633 21.944 82.1673 22.076C81.7833 22.196 81.3632 22.256 80.9072 22.256C79.8872 22.256 79.0953 21.986 78.5312 21.446C77.9672 20.894 77.6852 19.958 77.6852 18.638V14.552H75.8853V12.356Z" fill="#0A0D12"/>
<path d="M88.7028 22.274C87.9228 22.274 87.2148 22.148 86.5788 21.896C85.9428 21.632 85.3968 21.272 84.9408 20.816C84.4968 20.36 84.1548 19.826 83.9148 19.214C83.6748 18.602 83.5548 17.942 83.5548 17.234C83.5548 16.526 83.6808 15.866 83.9328 15.254C84.1968 14.63 84.5568 14.09 85.0128 13.634C85.4688 13.178 86.0088 12.818 86.6328 12.554C87.2568 12.29 87.9288 12.158 88.6488 12.158C89.3808 12.158 90.0528 12.284 90.6648 12.536C91.2768 12.788 91.8048 13.136 92.2488 13.58C92.6928 14.012 93.0408 14.534 93.2928 15.146C93.5448 15.758 93.6708 16.424 93.6708 17.144V18.08H85.9488C86.1168 18.716 86.4408 19.22 86.9208 19.592C87.4128 19.952 88.0188 20.132 88.7388 20.132C89.3148 20.132 89.8008 20.018 90.1968 19.79C90.5928 19.55 90.9108 19.232 91.1508 18.836L93.1848 20.024C92.6928 20.708 92.0928 21.254 91.3848 21.662C90.6768 22.07 89.7828 22.274 88.7028 22.274ZM88.6488 14.264C88.0128 14.264 87.4668 14.432 87.0108 14.768C86.5548 15.104 86.2248 15.56 86.0208 16.136H91.2048C91.0368 15.524 90.7308 15.062 90.2868 14.75C89.8428 14.426 89.2968 14.264 88.6488 14.264Z" fill="#0A0D12"/>
<path d="M95.2866 12.356H97.7706V13.58C98.0826 13.136 98.4786 12.788 98.9586 12.536C99.4506 12.284 100.003 12.158 100.615 12.158C101.767 12.158 102.679 12.518 103.351 13.238C104.035 13.946 104.377 14.936 104.377 16.208V22.076H101.839V16.586C101.839 15.89 101.671 15.344 101.335 14.948C101.011 14.54 100.519 14.336 99.8586 14.336C99.2706 14.336 98.7786 14.546 98.3826 14.966C97.9866 15.374 97.7886 15.956 97.7886 16.712V22.076H95.2866V12.356Z" fill="#0A0D12"/>
<path d="M110.664 22.22C110.064 22.22 109.482 22.106 108.918 21.878C108.354 21.638 107.856 21.302 107.424 20.87C106.992 20.426 106.644 19.898 106.38 19.286C106.116 18.662 105.984 17.966 105.984 17.198C105.984 16.43 106.11 15.734 106.362 15.11C106.626 14.486 106.974 13.958 107.406 13.526C107.838 13.082 108.336 12.746 108.9 12.518C109.476 12.278 110.076 12.158 110.7 12.158C111.348 12.158 111.93 12.29 112.446 12.554C112.974 12.818 113.4 13.178 113.724 13.634V12.356H116.208V21.356C116.208 22.064 116.082 22.712 115.83 23.3C115.578 23.9 115.224 24.416 114.768 24.848C114.324 25.28 113.79 25.616 113.166 25.856C112.542 26.108 111.858 26.234 111.114 26.234C109.998 26.234 109.062 26.072 108.306 25.748C107.55 25.436 106.896 24.956 106.344 24.308L108.396 22.706C108.72 23.126 109.08 23.45 109.476 23.678C109.872 23.906 110.394 24.02 111.042 24.02C111.438 24.02 111.798 23.954 112.122 23.822C112.446 23.702 112.728 23.528 112.968 23.3C113.208 23.072 113.394 22.796 113.526 22.472C113.658 22.16 113.724 21.812 113.724 21.428V20.69C113.376 21.17 112.938 21.548 112.41 21.824C111.882 22.088 111.3 22.22 110.664 22.22ZM111.15 19.916C111.534 19.916 111.888 19.844 112.212 19.7C112.548 19.556 112.836 19.364 113.076 19.124C113.316 18.872 113.502 18.584 113.634 18.26C113.778 17.924 113.85 17.564 113.85 17.18C113.85 16.796 113.778 16.442 113.634 16.118C113.502 15.782 113.316 15.494 113.076 15.254C112.836 15.002 112.548 14.804 112.212 14.66C111.888 14.516 111.534 14.444 111.15 14.444C110.778 14.444 110.424 14.516 110.088 14.66C109.764 14.792 109.482 14.984 109.242 15.236C109.002 15.476 108.81 15.764 108.666 16.1C108.522 16.436 108.45 16.796 108.45 17.18C108.45 17.564 108.522 17.924 108.666 18.26C108.81 18.584 109.002 18.872 109.242 19.124C109.482 19.364 109.764 19.556 110.088 19.7C110.424 19.844 110.778 19.916 111.15 19.916Z" fill="#0A0D12"/>
<path d="M118.156 12.356H120.694V22.076H118.156V12.356ZM117.832 9.62C117.832 9.152 117.982 8.768 118.282 8.468C118.582 8.156 118.96 8 119.416 8C119.896 8 120.28 8.156 120.568 8.468C120.868 8.768 121.018 9.152 121.018 9.62C121.018 10.076 120.868 10.454 120.568 10.754C120.28 11.054 119.896 11.204 119.416 11.204C118.948 11.204 118.564 11.054 118.264 10.754C117.976 10.454 117.832 10.076 117.832 9.62Z" fill="#0A0D12"/>
<path d="M122.673 12.356H125.157V13.58C125.469 13.136 125.865 12.788 126.345 12.536C126.837 12.284 127.389 12.158 128.001 12.158C129.153 12.158 130.065 12.518 130.737 13.238C131.421 13.946 131.763 14.936 131.763 16.208V22.076H129.225V16.586C129.225 15.89 129.057 15.344 128.721 14.948C128.397 14.54 127.905 14.336 127.245 14.336C126.657 14.336 126.165 14.546 125.769 14.966C125.373 15.374 125.175 15.956 125.175 16.712V22.076H122.673V12.356Z" fill="#0A0D12"/>
<path d="M138.519 22.274C137.739 22.274 137.031 22.148 136.395 21.896C135.759 21.632 135.213 21.272 134.757 20.816C134.313 20.36 133.971 19.826 133.731 19.214C133.491 18.602 133.371 17.942 133.371 17.234C133.371 16.526 133.497 15.866 133.749 15.254C134.013 14.63 134.373 14.09 134.829 13.634C135.285 13.178 135.825 12.818 136.449 12.554C137.073 12.29 137.745 12.158 138.465 12.158C139.197 12.158 139.869 12.284 140.481 12.536C141.093 12.788 141.621 13.136 142.065 13.58C142.509 14.012 142.857 14.534 143.109 15.146C143.361 15.758 143.487 16.424 143.487 17.144V18.08H135.765C135.933 18.716 136.257 19.22 136.737 19.592C137.229 19.952 137.835 20.132 138.555 20.132C139.131 20.132 139.617 20.018 140.013 19.79C140.409 19.55 140.727 19.232 140.967 18.836L143.001 20.024C142.509 20.708 141.909 21.254 141.201 21.662C140.493 22.07 139.599 22.274 138.519 22.274ZM138.465 14.264C137.829 14.264 137.283 14.432 136.827 14.768C136.371 15.104 136.041 15.56 135.837 16.136H141.021C140.853 15.524 140.547 15.062 140.103 14.75C139.659 14.426 139.113 14.264 138.465 14.264Z" fill="#0A0D12"/>
<defs>
<linearGradient id="paint0_linear_7531_72679" x1="16" y1="3.97364e-07" x2="17.3333" y2="32" gradientUnits="userSpaceOnUse">
<stop stop-color="white" stop-opacity="0"/>
<stop offset="1" stop-color="white" stop-opacity="0.12"/>
</linearGradient>
<linearGradient id="paint1_linear_7531_72679" x1="16" y1="0" x2="16" y2="32" gradientUnits="userSpaceOnUse">
<stop stop-color="white" stop-opacity="0.12"/>
<stop offset="1" stop-color="white" stop-opacity="0"/>
</linearGradient>
<clipPath id="clip0_7531_72679">
<rect width="32" height="32" rx="12" fill="white"/>
</clipPath>
</defs>
</svg>
