<svg width="151" height="32" viewBox="0 0 151 32" fill="none" xmlns="http://www.w3.org/2000/svg"> <g filter="url(#filter0_ddiii_7531_72679)"> <g clip-path="url(#clip0_7531_72679)"> <rect x="3" width="32" height="32" rx="12" fill="#0A0D12"/> <rect width="32" height="32" transform="translate(3)" fill="url(#paint0_linear_7531_72679)"/> <path d="M8 16.5001L10.6838 15.6055C10.889 15.5371 11.111 15.5371 11.3162 15.6055L14 16.5001" stroke="white" stroke-width="2" stroke-linecap="round"/> <path d="M18 16H32" stroke="#67E3F9" stroke-width="2"/> <path d="M11.3525 24.3547L12.6177 21.8244C12.7144 21.6309 12.8714 21.474 13.0649 21.3772L15.5952 20.1121" stroke="white" stroke-width="2" stroke-linecap="round"/> <path d="M21.9592 12.3339L24.4895 11.0688C24.683 10.972 24.84 10.8151 24.9367 10.6216L26.2019 8.09131" stroke="white" stroke-width="2" stroke-linecap="round"/> <path d="M19.5001 27.0015L18.6055 24.3177C18.5371 24.1124 18.5371 23.8905 18.6055 23.6852L19.5001 21.0015" stroke="white" stroke-width="2" stroke-linecap="round"/> <path d="M18.5 11.0015L19.3946 8.31769C19.463 8.11243 19.463 7.8905 19.3946 7.68524L18.5 5.00146" stroke="white" stroke-width="2" stroke-linecap="round"/> <path d="M27.3545 23.6474L24.8242 22.3823C24.6306 22.2855 24.4737 22.1286 24.377 21.9351L23.1118 19.4048" stroke="white" stroke-width="2" stroke-linecap="round"/> <path d="M15.3337 13.0407L14.0686 10.5105C13.9718 10.3169 13.8149 10.16 13.6213 10.0632L11.0911 8.7981" stroke="white" stroke-width="2" stroke-linecap="round"/> </g> <rect x="4" y="1" width="30" height="30" rx="11" stroke="url(#paint1_linear_7531_72679)" stroke-width="2"/> </g> <path d="M53.732 21.1391C52.736 21.1391 51.824 20.9651 50.996 20.6171C50.18 20.2571 49.472 19.7711 48.872 19.1591C48.284 18.5471 47.822 17.8331 47.486 17.0171C47.162 16.2011 47 15.3251 47 14.3891C47 13.4291 47.168 12.5411 47.504 11.7251C47.852 10.8971 48.326 10.1831 48.926 9.58306C49.538 8.97106 50.252 8.49706 51.068 8.16106C51.884 7.81306 52.772 7.63906 53.732 7.63906C54.356 7.63906 54.956 7.71706 55.532 7.87306C56.12 8.02906 56.66 8.25106 57.152 8.53906C57.656 8.82706 58.112 9.17506 58.52 9.58306C58.928 9.97906 59.276 10.4231 59.564 10.9151L57.332 12.3191C56.984 11.6351 56.504 11.1011 55.892 10.7171C55.292 10.3211 54.578 10.1231 53.75 10.1231C53.15 10.1231 52.592 10.2371 52.076 10.4651C51.572 10.6811 51.134 10.9811 50.762 11.3651C50.39 11.7491 50.096 12.2051 49.88 12.7331C49.676 13.2491 49.574 13.8011 49.574 14.3891C49.574 14.9651 49.676 15.5111 49.88 16.0271C50.084 16.5431 50.372 16.9931 50.744 17.3771C51.116 17.7611 51.554 18.0671 52.058 18.2951C52.562 18.5111 53.114 18.6191 53.714 18.6191C54.614 18.6191 55.376 18.3971 56 17.9531C56.636 17.4971 57.116 16.9091 57.44 16.1891L59.762 17.4311C59.486 17.9831 59.144 18.4871 58.736 18.9431C58.328 19.3991 57.866 19.7891 57.35 20.1131C56.846 20.4371 56.288 20.6891 55.676 20.8691C55.064 21.0491 54.416 21.1391 53.732 21.1391Z" fill="#0A0D12"/> <path d="M65.9602 21.1571C65.2282 21.1571 64.5502 21.0251 63.9262 20.7611C63.3022 20.4971 62.7562 20.1371 62.2882 19.6811C61.8322 19.2131 61.4722 18.6731 61.2082 18.0611C60.9562 17.4491 60.8302 16.7951 60.8302 16.0991C60.8302 15.4031 60.9562 14.7491 61.2082 14.1371C61.4722 13.5131 61.8322 12.9731 62.2882 12.5171C62.7562 12.0611 63.3022 11.7011 63.9262 11.4371C64.5502 11.1731 65.2282 11.0411 65.9602 11.0411C66.6802 11.0411 67.3522 11.1731 67.9762 11.4371C68.6122 11.7011 69.1582 12.0611 69.6142 12.5171C70.0822 12.9731 70.4482 13.5131 70.7122 14.1371C70.9762 14.7491 71.1082 15.4031 71.1082 16.0991C71.1082 16.7951 70.9762 17.4491 70.7122 18.0611C70.4482 18.6731 70.0882 19.2131 69.6322 19.6811C69.1762 20.1371 68.6302 20.4971 67.9942 20.7611C67.3702 21.0251 66.6922 21.1571 65.9602 21.1571ZM65.9782 18.7991C66.3502 18.7991 66.6982 18.7271 67.0222 18.5831C67.3462 18.4391 67.6282 18.2471 67.8682 18.0071C68.1082 17.7671 68.2942 17.4851 68.4262 17.1611C68.5702 16.8251 68.6422 16.4651 68.6422 16.0811C68.6422 15.7091 68.5702 15.3551 68.4262 15.0191C68.2942 14.6831 68.1082 14.3951 67.8682 14.1551C67.6282 13.9151 67.3462 13.7231 67.0222 13.5791C66.6982 13.4351 66.3502 13.3631 65.9782 13.3631C65.6062 13.3631 65.2582 13.4351 64.9342 13.5791C64.6102 13.7231 64.3282 13.9151 64.0882 14.1551C63.8482 14.3951 63.6562 14.6831 63.5122 15.0191C63.3802 15.3551 63.3142 15.7091 63.3142 16.0811C63.3142 16.4651 63.3802 16.8251 63.5122 17.1611C63.6562 17.4851 63.8482 17.7671 64.0882 18.0071C64.3282 18.2471 64.6102 18.4391 64.9342 18.5831C65.2582 18.7271 65.6062 18.7991 65.9782 18.7991Z" fill="#0A0D12"/> <path d="M72.7378 11.2391H75.2218V12.4631C75.5338 12.0191 75.9298 11.6711 76.4097 11.4191C76.9018 11.1671 77.4538 11.0411 78.0658 11.0411C79.2178 11.0411 80.1297 11.4011 80.8018 12.1211C81.4858 12.8291 81.8278 13.8191 81.8278 15.0911V20.9591H79.2897V15.4691C79.2897 14.7731 79.1218 14.2271 78.7858 13.8311C78.4618 13.4231 77.9698 13.2191 77.3098 13.2191C76.7218 13.2191 76.2298 13.4291 75.8338 13.8491C75.4378 14.2571 75.2398 14.8391 75.2398 15.5951V20.9591H72.7378V11.2391Z" fill="#0A0D12"/> <path d="M82.8853 11.2391H84.6852V9.13306L87.1333 7.69306V11.2391H89.6893V13.4351H87.1333V17.4311C87.1333 17.9471 87.2293 18.3071 87.4212 18.5111C87.6253 18.7151 87.8833 18.8171 88.1953 18.8171C88.5192 18.8171 88.8193 18.6971 89.0953 18.4571L90.2292 20.4011C89.9172 20.6411 89.5633 20.8271 89.1673 20.9591C88.7833 21.0791 88.3633 21.1391 87.9072 21.1391C86.8872 21.1391 86.0953 20.8691 85.5312 20.3291C84.9673 19.7771 84.6852 18.8411 84.6852 17.5211V13.4351H82.8853V11.2391Z" fill="#0A0D12"/> <path d="M95.7028 21.1571C94.9228 21.1571 94.2148 21.0311 93.5788 20.7791C92.9428 20.5151 92.3968 20.1551 91.9408 19.6991C91.4968 19.2431 91.1548 18.7091 90.9148 18.0971C90.6748 17.4851 90.5548 16.8251 90.5548 16.1171C90.5548 15.4091 90.6808 14.7491 90.9328 14.1371C91.1968 13.5131 91.5568 12.9731 92.0128 12.5171C92.4688 12.0611 93.0088 11.7011 93.6328 11.4371C94.2568 11.1731 94.9288 11.0411 95.6488 11.0411C96.3808 11.0411 97.0528 11.1671 97.6648 11.4191C98.2768 11.6711 98.8048 12.0191 99.2488 12.4631C99.6928 12.8951 100.041 13.4171 100.293 14.0291C100.545 14.6411 100.671 15.3071 100.671 16.0271V16.9631H92.9488C93.1168 17.5991 93.4408 18.1031 93.9208 18.4751C94.4128 18.8351 95.0188 19.0151 95.7388 19.0151C96.3148 19.0151 96.8008 18.9011 97.1968 18.6731C97.5928 18.4331 97.9108 18.1151 98.1508 17.7191L100.185 18.9071C99.6928 19.5911 99.0928 20.1371 98.3848 20.5451C97.6768 20.9531 96.7828 21.1571 95.7028 21.1571ZM95.6488 13.1471C95.0128 13.1471 94.4668 13.3151 94.0108 13.6511C93.5548 13.9871 93.2248 14.4431 93.0208 15.0191H98.2048C98.0368 14.4071 97.7308 13.9451 97.2868 13.6331C96.8428 13.3091 96.2968 13.1471 95.6488 13.1471Z" fill="#0A0D12"/> <path d="M102.287 11.2391H104.771V12.4631C105.083 12.0191 105.479 11.6711 105.959 11.4191C106.451 11.1671 107.003 11.0411 107.615 11.0411C108.767 11.0411 109.679 11.4011 110.351 12.1211C111.035 12.8291 111.377 13.8191 111.377 15.0911V20.9591H108.839V15.4691C108.839 14.7731 108.671 14.2271 108.335 13.8311C108.011 13.4231 107.519 13.2191 106.859 13.2191C106.271 13.2191 105.779 13.4291 105.383 13.8491C104.987 14.2571 104.789 14.8391 104.789 15.5951V20.9591H102.287V11.2391Z" fill="#0A0D12"/> <path d="M117.664 21.1031C117.064 21.1031 116.482 20.9891 115.918 20.7611C115.354 20.5211 114.856 20.1851 114.424 19.7531C113.992 19.3091 113.644 18.7811 113.38 18.1691C113.116 17.5451 112.984 16.8491 112.984 16.0811C112.984 15.3131 113.11 14.6171 113.362 13.9931C113.626 13.3691 113.974 12.8411 114.406 12.4091C114.838 11.9651 115.336 11.6291 115.9 11.4011C116.476 11.1611 117.076 11.0411 117.7 11.0411C118.348 11.0411 118.93 11.1731 119.446 11.4371C119.974 11.7011 120.4 12.0611 120.724 12.5171V11.2391H123.208V20.2391C123.208 20.9471 123.082 21.5951 122.83 22.1831C122.578 22.7831 122.224 23.2991 121.768 23.7311C121.324 24.1631 120.79 24.4991 120.166 24.7391C119.542 24.9911 118.858 25.1171 118.114 25.1171C116.998 25.1171 116.062 24.9551 115.306 24.6311C114.55 24.3191 113.896 23.8391 113.344 23.1911L115.396 21.5891C115.72 22.0091 116.08 22.3331 116.476 22.5611C116.872 22.7891 117.394 22.9031 118.042 22.9031C118.438 22.9031 118.798 22.8371 119.122 22.7051C119.446 22.5851 119.728 22.4111 119.968 22.1831C120.208 21.9551 120.394 21.6791 120.526 21.3551C120.658 21.0431 120.724 20.6951 120.724 20.3111V19.5731C120.376 20.0531 119.938 20.4311 119.41 20.7071C118.882 20.9711 118.3 21.1031 117.664 21.1031ZM118.15 18.7991C118.534 18.7991 118.888 18.7271 119.212 18.5831C119.548 18.4391 119.836 18.2471 120.076 18.0071C120.316 17.7551 120.502 17.4671 120.634 17.1431C120.778 16.8071 120.85 16.4471 120.85 16.0631C120.85 15.6791 120.778 15.3251 120.634 15.0011C120.502 14.6651 120.316 14.3771 120.076 14.1371C119.836 13.8851 119.548 13.6871 119.212 13.5431C118.888 13.3991 118.534 13.3271 118.15 13.3271C117.778 13.3271 117.424 13.3991 117.088 13.5431C116.764 13.6751 116.482 13.8671 116.242 14.1191C116.002 14.3591 115.81 14.6471 115.666 14.9831C115.522 15.3191 115.45 15.6791 115.45 16.0631C115.45 16.4471 115.522 16.8071 115.666 17.1431C115.81 17.4671 116.002 17.7551 116.242 18.0071C116.482 18.2471 116.764 18.4391 117.088 18.5831C117.424 18.7271 117.778 18.7991 118.15 18.7991Z" fill="#0A0D12"/> <path d="M125.156 11.2391H127.694V20.9591H125.156V11.2391ZM124.832 8.50306C124.832 8.03506 124.982 7.65106 125.282 7.35106C125.582 7.03906 125.96 6.88306 126.416 6.88306C126.896 6.88306 127.28 7.03906 127.568 7.35106C127.868 7.65106 128.018 8.03506 128.018 8.50306C128.018 8.95906 127.868 9.33706 127.568 9.63706C127.28 9.93706 126.896 10.0871 126.416 10.0871C125.948 10.0871 125.564 9.93706 125.264 9.63706C124.976 9.33706 124.832 8.95906 124.832 8.50306Z" fill="#0A0D12"/> <path d="M129.673 11.2391H132.157V12.4631C132.469 12.0191 132.865 11.6711 133.345 11.4191C133.837 11.1671 134.389 11.0411 135.001 11.0411C136.153 11.0411 137.065 11.4011 137.737 12.1211C138.421 12.8291 138.763 13.8191 138.763 15.0911V20.9591H136.225V15.4691C136.225 14.7731 136.057 14.2271 135.721 13.8311C135.397 13.4231 134.905 13.2191 134.245 13.2191C133.657 13.2191 133.165 13.4291 132.769 13.8491C132.373 14.2571 132.175 14.8391 132.175 15.5951V20.9591H129.673V11.2391Z" fill="#0A0D12"/> <path d="M145.519 21.1571C144.739 21.1571 144.031 21.0311 143.395 20.7791C142.759 20.5151 142.213 20.1551 141.757 19.6991C141.313 19.2431 140.971 18.7091 140.731 18.0971C140.491 17.4851 140.371 16.8251 140.371 16.1171C140.371 15.4091 140.497 14.7491 140.749 14.1371C141.013 13.5131 141.373 12.9731 141.829 12.5171C142.285 12.0611 142.825 11.7011 143.449 11.4371C144.073 11.1731 144.745 11.0411 145.465 11.0411C146.197 11.0411 146.869 11.1671 147.481 11.4191C148.093 11.6711 148.621 12.0191 149.065 12.4631C149.509 12.8951 149.857 13.4171 150.109 14.0291C150.361 14.6411 150.487 15.3071 150.487 16.0271V16.9631H142.765C142.933 17.5991 143.257 18.1031 143.737 18.4751C144.229 18.8351 144.835 19.0151 145.555 19.0151C146.131 19.0151 146.617 18.9011 147.013 18.6731C147.409 18.4331 147.727 18.1151 147.967 17.7191L150.001 18.9071C149.509 19.5911 148.909 20.1371 148.201 20.5451C147.493 20.9531 146.599 21.1571 145.519 21.1571ZM145.465 13.1471C144.829 13.1471 144.283 13.3151 143.827 13.6511C143.371 13.9871 143.041 14.4431 142.837 15.0191H148.021C147.853 14.4071 147.547 13.9451 147.103 13.6331C146.659 13.3091 146.113 13.1471 145.465 13.1471Z" fill="#0A0D12"/> <defs> <filter id="filter0_ddiii_7531_72679" x="0" y="-3" width="38" height="41" filterUnits="userSpaceOnUse" color-interpolation-filters="sRGB"> <feFlood flood-opacity="0" result="BackgroundImageFix"/> <feColorMatrix in="SourceAlpha" type="matrix" values="0 0 0 0 0 0 0 0 0 0 0 0 0 0 0 0 0 0 127 0" result="hardAlpha"/> <feOffset dy="1"/> <feGaussianBlur stdDeviation="0.5"/> <feComposite in2="hardAlpha" operator="out"/> <feColorMatrix type="matrix" values="0 0 0 0 0.162923 0 0 0 0 0.162923 0 0 0 0 0.162923 0 0 0 0.08 0"/> <feBlend mode="normal" in2="BackgroundImageFix" result="effect1_dropShadow_7531_72679"/> <feColorMatrix in="SourceAlpha" type="matrix" values="0 0 0 0 0 0 0 0 0 0 0 0 0 0 0 0 0 0 127 0" result="hardAlpha"/> <feMorphology radius="1" operator="erode" in="SourceAlpha" result="effect2_dropShadow_7531_72679"/> <feOffset dy="3"/> <feGaussianBlur stdDeviation="2"/> <feComposite in2="hardAlpha" operator="out"/> <feColorMatrix type="matrix" values="0 0 0 0 0.164706 0 0 0 0 0.164706 0 0 0 0 0.164706 0 0 0 0.14 0"/> <feBlend mode="normal" in2="effect1_dropShadow_7531_72679" result="effect2_dropShadow_7531_72679"/> <feBlend mode="normal" in="SourceGraphic" in2="effect2_dropShadow_7531_72679" result="shape"/> <feColorMatrix in="SourceAlpha" type="matrix" values="0 0 0 0 0 0 0 0 0 0 0 0 0 0 0 0 0 0 127 0" result="hardAlpha"/> <feOffset dy="-3"/> <feGaussianBlur stdDeviation="1.5"/> <feComposite in2="hardAlpha" operator="arithmetic" k2="-1" k3="1"/> <feColorMatrix type="matrix" values="0 0 0 0 0 0 0 0 0 0 0 0 0 0 0 0 0 0 0.1 0"/> <feBlend mode="normal" in2="shape" result="effect3_innerShadow_7531_72679"/> <feColorMatrix in="SourceAlpha" type="matrix" values="0 0 0 0 0 0 0 0 0 0 0 0 0 0 0 0 0 0 127 0" result="hardAlpha"/> <feOffset dy="3"/> <feGaussianBlur stdDeviation="1.5"/> <feComposite in2="hardAlpha" operator="arithmetic" k2="-1" k3="1"/> <feColorMatrix type="matrix" values="0 0 0 0 1 0 0 0 0 1 0 0 0 0 1 0 0 0 0.1 0"/> <feBlend mode="normal" in2="effect3_innerShadow_7531_72679" result="effect4_innerShadow_7531_72679"/> <feColorMatrix in="SourceAlpha" type="matrix" values="0 0 0 0 0 0 0 0 0 0 0 0 0 0 0 0 0 0 127 0" result="hardAlpha"/> <feMorphology radius="1" operator="erode" in="SourceAlpha" result="effect5_innerShadow_7531_72679"/> <feOffset/> <feComposite in2="hardAlpha" operator="arithmetic" k2="-1" k3="1"/> <feColorMatrix type="matrix" values="0 0 0 0 0.0627451 0 0 0 0 0.0941176 0 0 0 0 0.156863 0 0 0 0.24 0"/> <feBlend mode="normal" in2="effect4_innerShadow_7531_72679" result="effect5_innerShadow_7531_72679"/> </filter> <linearGradient id="paint0_linear_7531_72679" x1="16" y1="3.97364e-07" x2="17.3333" y2="32" gradientUnits="userSpaceOnUse"> <stop stop-color="white" stop-opacity="0"/> <stop offset="1" stop-color="white" stop-opacity="0.12"/> </linearGradient> <linearGradient id="paint1_linear_7531_72679" x1="19" y1="0" x2="19" y2="32" gradientUnits="userSpaceOnUse"> <stop stop-color="white" stop-opacity="0.12"/> <stop offset="1" stop-color="white" stop-opacity="0"/> </linearGradient> <clipPath id="clip0_7531_72679"> <rect x="3" width="32" height="32" rx="12" fill="white"/> </clipPath> </defs> </svg>
