<svg width="148" height="32" viewBox="0 0 148 32" fill="none" xmlns="http://www.w3.org/2000/svg"> <g clip-path="url(#clip0_7531_72679)"> <rect width="32" height="32" rx="12" fill="#0A0D12"/> <rect width="32" height="32" fill="url(#paint0_linear_7531_72679)"/> <path d="M5 16.5001L7.68377 15.6055C7.88904 15.5371 8.11096 15.5371 8.31623 15.6055L11 16.5001" stroke="white" stroke-width="2" stroke-linecap="round"/> <path d="M15 16H29" stroke="#67E3F9" stroke-width="2"/> <path d="M8.35254 24.3547L9.61768 21.8244C9.71445 21.6309 9.87137 21.474 10.0649 21.3772L12.5952 20.1121" stroke="white" stroke-width="2" stroke-linecap="round"/> <path d="M18.9592 12.3339L21.4895 11.0688C21.683 10.972 21.84 10.8151 21.9367 10.6216L23.2019 8.09131" stroke="white" stroke-width="2" stroke-linecap="round"/> <path d="M16.5001 27.0015L15.6055 24.3177C15.5371 24.1124 15.5371 23.8905 15.6055 23.6852L16.5001 21.0015" stroke="white" stroke-width="2" stroke-linecap="round"/> <path d="M15.5 11.0015L16.3946 8.31769C16.463 8.11243 16.463 7.8905 16.3946 7.68524L15.5 5.00146" stroke="white" stroke-width="2" stroke-linecap="round"/> <path d="M24.3545 23.6474L21.8242 22.3823C21.6306 22.2855 21.4737 22.1286 21.377 21.9351L20.1118 19.4048" stroke="white" stroke-width="2" stroke-linecap="round"/> <path d="M12.3337 13.0407L11.0686 10.5105C10.9718 10.3169 10.8149 10.16 10.6213 10.0632L8.09106 8.7981" stroke="white" stroke-width="2" stroke-linecap="round"/> </g> <rect x="1" y="1" width="30" height="30" rx="11" stroke="url(#paint1_linear_7531_72679)" stroke-width="2"/> <path d="M50.732 21.1391C49.736 21.1391 48.824 20.9651 47.996 20.6171C47.18 20.2571 46.472 19.7711 45.872 19.1591C45.284 18.5471 44.822 17.8331 44.486 17.0171C44.162 16.2011 44 15.3251 44 14.3891C44 13.4291 44.168 12.5411 44.504 11.7251C44.852 10.8971 45.326 10.1831 45.926 9.58306C46.538 8.97106 47.252 8.49706 48.068 8.16106C48.884 7.81306 49.772 7.63906 50.732 7.63906C51.356 7.63906 51.956 7.71706 52.532 7.87306C53.12 8.02906 53.66 8.25106 54.152 8.53906C54.656 8.82706 55.112 9.17506 55.52 9.58306C55.928 9.97906 56.276 10.4231 56.564 10.9151L54.332 12.3191C53.984 11.6351 53.504 11.1011 52.892 10.7171C52.292 10.3211 51.578 10.1231 50.75 10.1231C50.15 10.1231 49.592 10.2371 49.076 10.4651C48.572 10.6811 48.134 10.9811 47.762 11.3651C47.39 11.7491 47.096 12.2051 46.88 12.7331C46.676 13.2491 46.574 13.8011 46.574 14.3891C46.574 14.9651 46.676 15.5111 46.88 16.0271C47.084 16.5431 47.372 16.9931 47.744 17.3771C48.116 17.7611 48.554 18.0671 49.058 18.2951C49.562 18.5111 50.114 18.6191 50.714 18.6191C51.614 18.6191 52.376 18.3971 53 17.9531C53.636 17.4971 54.116 16.9091 54.44 16.1891L56.762 17.4311C56.486 17.9831 56.144 18.4871 55.736 18.9431C55.328 19.3991 54.866 19.7891 54.35 20.1131C53.846 20.4371 53.288 20.6891 52.676 20.8691C52.064 21.0491 51.416 21.1391 50.732 21.1391Z" fill="#0A0D12"/> <path d="M62.9602 21.1571C62.2282 21.1571 61.5502 21.0251 60.9262 20.7611C60.3022 20.4971 59.7562 20.1371 59.2882 19.6811C58.8322 19.2131 58.4722 18.6731 58.2082 18.0611C57.9562 17.4491 57.8302 16.7951 57.8302 16.0991C57.8302 15.4031 57.9562 14.7491 58.2082 14.1371C58.4722 13.5131 58.8322 12.9731 59.2882 12.5171C59.7562 12.0611 60.3022 11.7011 60.9262 11.4371C61.5502 11.1731 62.2282 11.0411 62.9602 11.0411C63.6802 11.0411 64.3522 11.1731 64.9762 11.4371C65.6122 11.7011 66.1582 12.0611 66.6142 12.5171C67.0822 12.9731 67.4482 13.5131 67.7122 14.1371C67.9762 14.7491 68.1082 15.4031 68.1082 16.0991C68.1082 16.7951 67.9762 17.4491 67.7122 18.0611C67.4482 18.6731 67.0882 19.2131 66.6322 19.6811C66.1762 20.1371 65.6302 20.4971 64.9942 20.7611C64.3702 21.0251 63.6922 21.1571 62.9602 21.1571ZM62.9782 18.7991C63.3502 18.7991 63.6982 18.7271 64.0222 18.5831C64.3462 18.4391 64.6282 18.2471 64.8682 18.0071C65.1082 17.7671 65.2942 17.4851 65.4262 17.1611C65.5702 16.8251 65.6422 16.4651 65.6422 16.0811C65.6422 15.7091 65.5702 15.3551 65.4262 15.0191C65.2942 14.6831 65.1082 14.3951 64.8682 14.1551C64.6282 13.9151 64.3462 13.7231 64.0222 13.5791C63.6982 13.4351 63.3502 13.3631 62.9782 13.3631C62.6062 13.3631 62.2582 13.4351 61.9342 13.5791C61.6102 13.7231 61.3282 13.9151 61.0882 14.1551C60.8482 14.3951 60.6562 14.6831 60.5122 15.0191C60.3802 15.3551 60.3142 15.7091 60.3142 16.0811C60.3142 16.4651 60.3802 16.8251 60.5122 17.1611C60.6562 17.4851 60.8482 17.7671 61.0882 18.0071C61.3282 18.2471 61.6102 18.4391 61.9342 18.5831C62.2582 18.7271 62.6062 18.7991 62.9782 18.7991Z" fill="#0A0D12"/> <path d="M69.7378 11.2391H72.2218V12.4631C72.5338 12.0191 72.9298 11.6711 73.4097 11.4191C73.9018 11.1671 74.4538 11.0411 75.0658 11.0411C76.2178 11.0411 77.1297 11.4011 77.8018 12.1211C78.4858 12.8291 78.8278 13.8191 78.8278 15.0911V20.9591H76.2897V15.4691C76.2897 14.7731 76.1218 14.2271 75.7858 13.8311C75.4618 13.4231 74.9698 13.2191 74.3098 13.2191C73.7218 13.2191 73.2298 13.4291 72.8338 13.8491C72.4378 14.2571 72.2398 14.8391 72.2398 15.5951V20.9591H69.7378V11.2391Z" fill="#0A0D12"/> <path d="M79.8853 11.2391H81.6852V9.13306L84.1333 7.69306V11.2391H86.6893V13.4351H84.1333V17.4311C84.1333 17.9471 84.2293 18.3071 84.4212 18.5111C84.6253 18.7151 84.8833 18.8171 85.1953 18.8171C85.5192 18.8171 85.8193 18.6971 86.0953 18.4571L87.2292 20.4011C86.9172 20.6411 86.5633 20.8271 86.1673 20.9591C85.7833 21.0791 85.3633 21.1391 84.9072 21.1391C83.8872 21.1391 83.0953 20.8691 82.5312 20.3291C81.9673 19.7771 81.6852 18.8411 81.6852 17.5211V13.4351H79.8853V11.2391Z" fill="#0A0D12"/> <path d="M92.7028 21.1571C91.9228 21.1571 91.2148 21.0311 90.5788 20.7791C89.9428 20.5151 89.3968 20.1551 88.9408 19.6991C88.4968 19.2431 88.1548 18.7091 87.9148 18.0971C87.6748 17.4851 87.5548 16.8251 87.5548 16.1171C87.5548 15.4091 87.6808 14.7491 87.9328 14.1371C88.1968 13.5131 88.5568 12.9731 89.0128 12.5171C89.4688 12.0611 90.0088 11.7011 90.6328 11.4371C91.2568 11.1731 91.9288 11.0411 92.6488 11.0411C93.3808 11.0411 94.0528 11.1671 94.6648 11.4191C95.2768 11.6711 95.8048 12.0191 96.2488 12.4631C96.6928 12.8951 97.0408 13.4171 97.2928 14.0291C97.5448 14.6411 97.6708 15.3071 97.6708 16.0271V16.9631H89.9488C90.1168 17.5991 90.4408 18.1031 90.9208 18.4751C91.4128 18.8351 92.0188 19.0151 92.7388 19.0151C93.3148 19.0151 93.8008 18.9011 94.1968 18.6731C94.5928 18.4331 94.9108 18.1151 95.1508 17.7191L97.1848 18.9071C96.6928 19.5911 96.0928 20.1371 95.3848 20.5451C94.6768 20.9531 93.7828 21.1571 92.7028 21.1571ZM92.6488 13.1471C92.0128 13.1471 91.4668 13.3151 91.0108 13.6511C90.5548 13.9871 90.2248 14.4431 90.0208 15.0191H95.2048C95.0368 14.4071 94.7308 13.9451 94.2868 13.6331C93.8428 13.3091 93.2968 13.1471 92.6488 13.1471Z" fill="#0A0D12"/> <path d="M99.2866 11.2391H101.771V12.4631C102.083 12.0191 102.479 11.6711 102.959 11.4191C103.451 11.1671 104.003 11.0411 104.615 11.0411C105.767 11.0411 106.679 11.4011 107.351 12.1211C108.035 12.8291 108.377 13.8191 108.377 15.0911V20.9591H105.839V15.4691C105.839 14.7731 105.671 14.2271 105.335 13.8311C105.011 13.4231 104.519 13.2191 103.859 13.2191C103.271 13.2191 102.779 13.4291 102.383 13.8491C101.987 14.2571 101.789 14.8391 101.789 15.5951V20.9591H99.2866V11.2391Z" fill="#0A0D12"/> <path d="M114.664 21.1031C114.064 21.1031 113.482 20.9891 112.918 20.7611C112.354 20.5211 111.856 20.1851 111.424 19.7531C110.992 19.3091 110.644 18.7811 110.38 18.1691C110.116 17.5451 109.984 16.8491 109.984 16.0811C109.984 15.3131 110.11 14.6171 110.362 13.9931C110.626 13.3691 110.974 12.8411 111.406 12.4091C111.838 11.9651 112.336 11.6291 112.9 11.4011C113.476 11.1611 114.076 11.0411 114.7 11.0411C115.348 11.0411 115.93 11.1731 116.446 11.4371C116.974 11.7011 117.4 12.0611 117.724 12.5171V11.2391H120.208V20.2391C120.208 20.9471 120.082 21.5951 119.83 22.1831C119.578 22.7831 119.224 23.2991 118.768 23.7311C118.324 24.1631 117.79 24.4991 117.166 24.7391C116.542 24.9911 115.858 25.1171 115.114 25.1171C113.998 25.1171 113.062 24.9551 112.306 24.6311C111.55 24.3191 110.896 23.8391 110.344 23.1911L112.396 21.5891C112.72 22.0091 113.08 22.3331 113.476 22.5611C113.872 22.7891 114.394 22.9031 115.042 22.9031C115.438 22.9031 115.798 22.8371 116.122 22.7051C116.446 22.5851 116.728 22.4111 116.968 22.1831C117.208 21.9551 117.394 21.6791 117.526 21.3551C117.658 21.0431 117.724 20.6951 117.724 20.3111V19.5731C117.376 20.0531 116.938 20.4311 116.41 20.7071C115.882 20.9711 115.3 21.1031 114.664 21.1031ZM115.15 18.7991C115.534 18.7991 115.888 18.7271 116.212 18.5831C116.548 18.4391 116.836 18.2471 117.076 18.0071C117.316 17.7551 117.502 17.4671 117.634 17.1431C117.778 16.8071 117.85 16.4471 117.85 16.0631C117.85 15.6791 117.778 15.3251 117.634 15.0011C117.502 14.6651 117.316 14.3771 117.076 14.1371C116.836 13.8851 116.548 13.6871 116.212 13.5431C115.888 13.3991 115.534 13.3271 115.15 13.3271C114.778 13.3271 114.424 13.3991 114.088 13.5431C113.764 13.6751 113.482 13.8671 113.242 14.1191C113.002 14.3591 112.81 14.6471 112.666 14.9831C112.522 15.3191 112.45 15.6791 112.45 16.0631C112.45 16.4471 112.522 16.8071 112.666 17.1431C112.81 17.4671 113.002 17.7551 113.242 18.0071C113.482 18.2471 113.764 18.4391 114.088 18.5831C114.424 18.7271 114.778 18.7991 115.15 18.7991Z" fill="#0A0D12"/> <path d="M122.156 11.2391H124.694V20.9591H122.156V11.2391ZM121.832 8.50306C121.832 8.03506 121.982 7.65106 122.282 7.35106C122.582 7.03906 122.96 6.88306 123.416 6.88306C123.896 6.88306 124.28 7.03906 124.568 7.35106C124.868 7.65106 125.018 8.03506 125.018 8.50306C125.018 8.95906 124.868 9.33706 124.568 9.63706C124.28 9.93706 123.896 10.0871 123.416 10.0871C122.948 10.0871 122.564 9.93706 122.264 9.63706C121.976 9.33706 121.832 8.95906 121.832 8.50306Z" fill="#0A0D12"/> <path d="M126.673 11.2391H129.157V12.4631C129.469 12.0191 129.865 11.6711 130.345 11.4191C130.837 11.1671 131.389 11.0411 132.001 11.0411C133.153 11.0411 134.065 11.4011 134.737 12.1211C135.421 12.8291 135.763 13.8191 135.763 15.0911V20.9591H133.225V15.4691C133.225 14.7731 133.057 14.2271 132.721 13.8311C132.397 13.4231 131.905 13.2191 131.245 13.2191C130.657 13.2191 130.165 13.4291 129.769 13.8491C129.373 14.2571 129.175 14.8391 129.175 15.5951V20.9591H126.673V11.2391Z" fill="#0A0D12"/> <path d="M142.519 21.1571C141.739 21.1571 141.031 21.0311 140.395 20.7791C139.759 20.5151 139.213 20.1551 138.757 19.6991C138.313 19.2431 137.971 18.7091 137.731 18.0971C137.491 17.4851 137.371 16.8251 137.371 16.1171C137.371 15.4091 137.497 14.7491 137.749 14.1371C138.013 13.5131 138.373 12.9731 138.829 12.5171C139.285 12.0611 139.825 11.7011 140.449 11.4371C141.073 11.1731 141.745 11.0411 142.465 11.0411C143.197 11.0411 143.869 11.1671 144.481 11.4191C145.093 11.6711 145.621 12.0191 146.065 12.4631C146.509 12.8951 146.857 13.4171 147.109 14.0291C147.361 14.6411 147.487 15.3071 147.487 16.0271V16.9631H139.765C139.933 17.5991 140.257 18.1031 140.737 18.4751C141.229 18.8351 141.835 19.0151 142.555 19.0151C143.131 19.0151 143.617 18.9011 144.013 18.6731C144.409 18.4331 144.727 18.1151 144.967 17.7191L147.001 18.9071C146.509 19.5911 145.909 20.1371 145.201 20.5451C144.493 20.9531 143.599 21.1571 142.519 21.1571ZM142.465 13.1471C141.829 13.1471 141.283 13.3151 140.827 13.6511C140.371 13.9871 140.041 14.4431 139.837 15.0191H145.021C144.853 14.4071 144.547 13.9451 144.103 13.6331C143.659 13.3091 143.113 13.1471 142.465 13.1471Z" fill="#0A0D12"/> <defs> <linearGradient id="paint0_linear_7531_72679" x1="16" y1="3.97364e-07" x2="17.3333" y2="32" gradientUnits="userSpaceOnUse"> <stop stop-color="white" stop-opacity="0"/> <stop offset="1" stop-color="white" stop-opacity="0.12"/> </linearGradient> <linearGradient id="paint1_linear_7531_72679" x1="16" y1="0" x2="16" y2="32" gradientUnits="userSpaceOnUse"> <stop stop-color="white" stop-opacity="0.12"/> <stop offset="1" stop-color="white" stop-opacity="0"/> </linearGradient> <clipPath id="clip0_7531_72679"> <rect width="32" height="32" rx="12" fill="white"/> </clipPath> </defs> </svg>
